<svg xmlns="http://www.w3.org/2000/svg" width="10" height="10" viewBox="0 0 10 10"><g><g><path fill="#7f807e" d="M9.999 7.898c0 .127-.024.293-.071.5a2.804 2.804 0 0 1-.15.487c-.099.236-.387.487-.866.752-.445.242-.885.362-1.32.362a2.664 2.664 0 0 1-.782-.113 5.549 5.549 0 0 1-.337-.103 24.145 24.145 0 0 1-.394-.146c-.19-.07-.306-.114-.348-.127a6.435 6.435 0 0 1-1.243-.59c-.606-.374-1.232-.884-1.878-1.53-.647-.647-1.157-1.273-1.53-1.879a6.42 6.42 0 0 1-.59-1.242 14.03 14.03 0 0 0-.128-.348l-.146-.394a5.784 5.784 0 0 1-.103-.338A2.719 2.719 0 0 1 0 2.409c0-.437.121-.877.363-1.323C.627.61.878.32 1.115.221c.118-.052.28-.102.486-.15.206-.048.373-.07.5-.07.067 0 .117.006.15.02.085.028.21.21.376.54.052.09.124.218.213.384.09.166.173.316.249.451.076.134.15.262.22.38.014.018.056.078.124.177.07.1.12.184.153.253a.46.46 0 0 1 .05.202c0 .094-.068.213-.203.355a3.42 3.42 0 0 1-.44.39 4.344 4.344 0 0 0-.44.377c-.135.133-.203.241-.203.327a.48.48 0 0 0 .036.16c.024.063.044.111.06.145.017.034.05.09.1.17.05.08.077.126.081.136a7.48 7.48 0 0 0 1.236 1.669c.464.463 1.02.875 1.669 1.235.01.004.054.032.135.082.08.05.137.082.17.099.034.017.082.037.146.06a.497.497 0 0 0 .16.036c.085 0 .194-.067.326-.203.133-.134.259-.28.377-.44.118-.158.248-.305.39-.44.143-.135.26-.203.356-.203.066 0 .133.017.202.05s.153.084.252.153c.1.068.159.11.178.124a17.257 17.257 0 0 0 .83.468c.166.091.294.162.384.214.331.166.511.29.54.376a.4.4 0 0 1 .021.15z"/></g></g></svg>