<svg width="40" height="40" viewBox="0 0 40 40" fill="none" xmlns="http://www.w3.org/2000/svg">
<path d="M23.121 25.7933C22.8758 26.0337 22.4676 26.0337 22.2138 25.7933C21.9686 25.5611 21.9686 25.1745 22.2138 24.9428L26.8136 20.5862L11.6351 20.5862C11.2812 20.5856 11 20.3192 11 19.9841C11 19.649 11.2812 19.374 11.6351 19.374L26.8136 19.374L22.2138 15.0254C21.9686 14.7851 21.9686 14.398 22.2138 14.1662C22.4676 13.9258 22.8763 13.9258 23.121 14.1662L28.8097 19.5542C29.0634 19.7865 29.0634 20.1731 28.8097 20.4048L23.121 25.7933Z" fill="#31455B"/>
<path opacity="0.2" d="M0.500002 19.9795C0.500003 9.22176 9.22997 0.50002 20 0.500021C30.77 0.500022 39.5 9.22177 39.5 19.9795C39.5 30.7372 30.77 39.459 20 39.459C9.22996 39.459 0.500001 30.7372 0.500002 19.9795Z" stroke="#2E4968"/>
</svg>
