<svg width="40" height="40" viewBox="0 0 40 40" fill="none" xmlns="http://www.w3.org/2000/svg">
<path d="M16.879 25.7933C17.1242 26.0337 17.5324 26.0337 17.7862 25.7933C18.0314 25.5611 18.0314 25.1745 17.7862 24.9428L13.1864 20.5862L28.3649 20.5862C28.7188 20.5856 29 20.3192 29 19.9841C29 19.649 28.7188 19.374 28.3649 19.374L13.1864 19.374L17.7862 15.0254C18.0314 14.7851 18.0314 14.398 17.7862 14.1662C17.5324 13.9258 17.1237 13.9258 16.879 14.1662L11.1903 19.5542C10.9366 19.7865 10.9366 20.1731 11.1903 20.4048L16.879 25.7933Z" fill="#31455B"/>
<path opacity="0.2" d="M39.5 19.9795C39.5 9.22176 30.77 0.50002 20 0.500021C9.22996 0.500022 0.499997 9.22177 0.499998 19.9795C0.499999 30.7372 9.22996 39.459 20 39.459C30.77 39.459 39.5 30.7372 39.5 19.9795Z" stroke="#2E4968"/>
</svg>
