<svg width="22" height="22" viewBox="0 0 22 22" fill="none" xmlns="http://www.w3.org/2000/svg">
<path d="M7.96619 5.31004H6.06964V3.41349C6.06964 3.20373 5.89971 3.03418 5.69033 3.03418C5.48095 3.03418 5.31102 3.20373 5.31102 3.41349V5.31004H3.41447C3.20509 5.31004 3.03516 5.47959 3.03516 5.68935C3.03516 5.89911 3.20509 6.06866 3.41447 6.06866H5.31102V7.96521C5.31102 8.17497 5.48095 8.34452 5.69033 8.34452C5.89971 8.34452 6.06964 8.17497 6.06964 7.96521V6.06866H7.96619C8.17557 6.06866 8.3455 5.89911 8.3455 5.68935C8.3455 5.47959 8.17557 5.31004 7.96619 5.31004Z" fill="#405368"/>
<path d="M18.5853 5.31055H14.0336C13.8242 5.31055 13.6543 5.4801 13.6543 5.68986C13.6543 5.89962 13.8242 6.06917 14.0336 6.06917H18.5853C18.7947 6.06917 18.9646 5.89962 18.9646 5.68986C18.9646 5.4801 18.7947 5.31055 18.5853 5.31055Z" fill="#405368"/>
<mask id="path-3-inside-1" fill="white">
<path d="M11.3793 0H10.6207H0V10.6207V11.3793V22H10.6207H11.3793H22V11.3793V10.6207V0H11.3793ZM0.758621 0.758621H10.6207V10.6207H0.758621V0.758621ZM0.758621 21.2414V11.3793H10.6207V21.2414H0.758621ZM21.2414 21.2414H11.3793V11.3793H21.2414V21.2414ZM11.3793 10.6207V0.758621H21.2414V10.6207H11.3793Z"/>
</mask>
<path d="M11.3793 0H10.6207H0V10.6207V11.3793V22H10.6207H11.3793H22V11.3793V10.6207V0H11.3793ZM0.758621 0.758621H10.6207V10.6207H0.758621V0.758621ZM0.758621 21.2414V11.3793H10.6207V21.2414H0.758621ZM21.2414 21.2414H11.3793V11.3793H21.2414V21.2414ZM11.3793 10.6207V0.758621H21.2414V10.6207H11.3793Z" fill="#405368"/>
<path d="M0 0V-2H-2V0H0ZM0 22H-2V24H0V22ZM22 22V24H24V22H22ZM22 0H24V-2H22V0ZM0.758621 0.758621V-1.24138H-1.24138V0.758621H0.758621ZM10.6207 0.758621H12.6207V-1.24138H10.6207V0.758621ZM10.6207 10.6207V12.6207H12.6207V10.6207H10.6207ZM0.758621 10.6207H-1.24138V12.6207H0.758621V10.6207ZM0.758621 21.2414H-1.24138V23.2414H0.758621V21.2414ZM0.758621 11.3793V9.37931H-1.24138V11.3793H0.758621ZM10.6207 11.3793H12.6207V9.37931H10.6207V11.3793ZM10.6207 21.2414V23.2414H12.6207V21.2414H10.6207ZM21.2414 21.2414V23.2414H23.2414V21.2414H21.2414ZM11.3793 21.2414H9.37931V23.2414H11.3793V21.2414ZM11.3793 11.3793V9.37931H9.37931V11.3793H11.3793ZM21.2414 11.3793H23.2414V9.37931H21.2414V11.3793ZM11.3793 10.6207H9.37931V12.6207H11.3793V10.6207ZM11.3793 0.758621V-1.24138H9.37931V0.758621H11.3793ZM21.2414 0.758621H23.2414V-1.24138H21.2414V0.758621ZM21.2414 10.6207V12.6207H23.2414V10.6207H21.2414ZM11.3793 -2H10.6207V2H11.3793V-2ZM10.6207 -2H0V2H10.6207V-2ZM-2 0V10.6207H2V0H-2ZM-2 10.6207V11.3793H2V10.6207H-2ZM-2 11.3793V22H2V11.3793H-2ZM0 24H10.6207V20H0V24ZM10.6207 24H11.3793V20H10.6207V24ZM11.3793 24H22V20H11.3793V24ZM24 22V11.3793H20V22H24ZM24 11.3793V10.6207H20V11.3793H24ZM24 10.6207V0H20V10.6207H24ZM22 -2H11.3793V2H22V-2ZM0.758621 2.75862H10.6207V-1.24138H0.758621V2.75862ZM8.62069 0.758621V10.6207H12.6207V0.758621H8.62069ZM10.6207 8.62069H0.758621V12.6207H10.6207V8.62069ZM2.75862 10.6207V0.758621H-1.24138V10.6207H2.75862ZM2.75862 21.2414V11.3793H-1.24138V21.2414H2.75862ZM0.758621 13.3793H10.6207V9.37931H0.758621V13.3793ZM8.62069 11.3793V21.2414H12.6207V11.3793H8.62069ZM10.6207 19.2414H0.758621V23.2414H10.6207V19.2414ZM21.2414 19.2414H11.3793V23.2414H21.2414V19.2414ZM13.3793 21.2414V11.3793H9.37931V21.2414H13.3793ZM11.3793 13.3793H21.2414V9.37931H11.3793V13.3793ZM19.2414 11.3793V21.2414H23.2414V11.3793H19.2414ZM13.3793 10.6207V0.758621H9.37931V10.6207H13.3793ZM11.3793 2.75862H21.2414V-1.24138H11.3793V2.75862ZM19.2414 0.758621V10.6207H23.2414V0.758621H19.2414ZM21.2414 8.62069H11.3793V12.6207H21.2414V8.62069Z" fill="#405368" mask="url(#path-3-inside-1)"/>
<path d="M14.0336 17.828H18.5853C18.7947 17.828 18.9646 17.6584 18.9646 17.4486C18.9646 17.2389 18.7947 17.0693 18.5853 17.0693H14.0336C13.8242 17.0693 13.6543 17.2389 13.6543 17.4486C13.6543 17.6584 13.8242 17.828 14.0336 17.828Z" fill="#405368"/>
<path d="M14.0336 15.5516H18.5853C18.7947 15.5516 18.9646 15.382 18.9646 15.1723C18.9646 14.9625 18.7947 14.793 18.5853 14.793H14.0336C13.8242 14.793 13.6543 14.9625 13.6543 15.1723C13.6543 15.382 13.8242 15.5516 14.0336 15.5516Z" fill="#405368"/>
<path d="M7.85474 14.1454C7.70643 13.9971 7.46671 13.9971 7.3184 14.1454L5.69002 15.7738L4.06164 14.1454C3.91333 13.9971 3.67361 13.9971 3.5253 14.1454C3.37698 14.2937 3.37698 14.5334 3.5253 14.6818L5.15367 16.3101L3.5253 17.9385C3.37698 18.0868 3.37698 18.3266 3.5253 18.4749C3.59926 18.5488 3.69636 18.586 3.79347 18.586C3.89057 18.586 3.98767 18.5488 4.06164 18.4749L5.69002 16.8465L7.3184 18.4749C7.39236 18.5488 7.48947 18.586 7.58657 18.586C7.68367 18.586 7.78078 18.5488 7.85474 18.4749C8.00305 18.3266 8.00305 18.0868 7.85474 17.9385L6.22636 16.3101L7.85474 14.6818C8.00305 14.5334 8.00305 14.2937 7.85474 14.1454Z" fill="#405368"/>
</svg>
