<svg width="14" height="18" viewBox="0 0 14 18" fill="none" xmlns="http://www.w3.org/2000/svg">
<path d="M13.4615 10.5388C13.2553 7.85426 12.0055 6.17199 10.9028 4.68749C9.88182 3.31316 9 2.12635 9 0.375642C9 0.235017 8.92125 0.106486 8.79638 0.0420446C8.67111 -0.0227835 8.52061 -0.0121663 8.40674 0.0705915C6.75074 1.25557 5.36903 3.25276 4.88637 5.15837C4.55129 6.48506 4.50696 7.97653 4.50074 8.96157C2.97144 8.63494 2.62501 6.34739 2.62136 6.32246C2.60413 6.20381 2.53164 6.10056 2.42617 6.04417C2.31961 5.98851 2.19435 5.98447 2.08631 6.03794C2.00612 6.07676 0.117914 7.03617 0.00805065 10.8668C0.000351432 10.9943 0 11.1221 0 11.2499C0 14.9714 3.02818 17.9994 6.75 17.9994C6.75513 17.9998 6.76062 18.0005 6.76501 17.9994C6.76649 17.9994 6.76793 17.9994 6.76976 17.9994C10.4824 17.9888 13.5 14.9649 13.5 11.2499C13.5 11.0628 13.4615 10.5388 13.4615 10.5388ZM6.75 17.2495C5.50927 17.2495 4.5 16.1744 4.5 14.8528C4.5 14.8078 4.49965 14.7624 4.50292 14.7067C4.51793 14.1494 4.62379 13.7689 4.73987 13.5159C4.95742 13.9831 5.34632 14.4127 5.97804 14.4127C6.18532 14.4127 6.35305 14.2449 6.35305 14.0377C6.35305 13.5038 6.36405 12.8879 6.49698 12.332C6.61528 11.8391 6.89797 11.3147 7.25614 10.8943C7.41544 11.4399 7.72601 11.8815 8.02923 12.3126C8.4632 12.9292 8.91179 13.5668 8.99054 14.654C8.99529 14.7184 9.00007 14.7832 9.00007 14.8528C9 16.1743 7.99073 17.2495 6.75 17.2495Z" fill="#31455B"/>
</svg>
