<svg width="28" height="24" viewBox="0 0 28 24" fill="none" xmlns="http://www.w3.org/2000/svg">
<path d="M0.0292969 24.4402H1.31506V21.4477H3.06332V20.1709H0.0292969V24.4402Z" fill="#1A2735"/>
<path d="M8.807 20.6399C8.659 20.4903 8.48324 20.3806 8.27049 20.2908C8.05774 20.201 7.82649 20.1611 7.56749 20.1611L7.57674 20.1711H5.44922V24.4404H6.74423V23.4629H7.58599C7.84499 23.4629 8.07624 23.423 8.27974 23.3332C8.49249 23.2434 8.659 23.1337 8.807 22.9841C8.955 22.8345 9.066 22.6649 9.14925 22.4654C9.2325 22.2659 9.2695 22.0464 9.2695 21.807C9.2695 21.5676 9.2325 21.3482 9.14925 21.1487C9.066 20.9591 8.955 20.7896 8.807 20.6399ZM7.94674 21.9766C7.92824 22.0265 7.89124 22.0763 7.85424 22.1162C7.81724 22.1561 7.77099 22.1861 7.72474 22.216C7.67849 22.2359 7.63224 22.2559 7.57674 22.2559H6.73498L6.74423 21.3881H7.58599C7.63224 21.3881 7.67849 21.398 7.72474 21.428C7.77099 21.4479 7.80799 21.4778 7.84499 21.5277C7.88199 21.5676 7.90974 21.6175 7.93749 21.6674C7.95599 21.7172 7.97449 21.7671 7.97449 21.827C7.98374 21.8669 7.97449 21.9267 7.94674 21.9766Z" fill="#1A2735"/>
<path d="M13.7 21.5771H13.1913L12.6825 20.1108H11.332L12.2848 22.8539H13.2653L13.182 23.0634C13.1635 23.1033 13.145 23.1432 13.1173 23.1731C13.0895 23.203 13.0433 23.213 12.9693 23.213H12.405V24.4898H12.9693C13.1635 24.4898 13.3393 24.4699 13.4965 24.41C13.6445 24.3502 13.7833 24.2803 13.9036 24.1706C14.0238 24.0709 14.1256 23.9412 14.2088 23.8015C14.2921 23.6619 14.3661 23.5023 14.4308 23.3227H14.4401L15.5686 20.0908H14.2181L13.7 21.5771Z" fill="#1A2735"/>
<path d="M17.8984 24.4402H19.1934V21.4477H20.3127V24.4402H21.6077V20.1709H17.8984V24.4402Z" fill="#1A2735"/>
<path d="M24.2812 20.1709V24.4402H25.5763V21.4477H26.7048V24.4402H27.9998V20.1709H24.2812Z" fill="#1A2735"/>
<path d="M17.3069 3.63092V0H12.0344L8.64883 4.33915L5.27255 0H0V15.99H4.85629V6.85287H5.06905L8.64883 11.4115V11.4214H8.65808V11.4115L12.2379 6.85287H12.4506V9.91521L17.3069 3.63092Z" fill="#1A2735"/>
<path d="M27.9715 0H22.6527L12.4961 13.1471V16.0199H17.3524V13.7756L18.7677 11.9302L22.1717 16.0199H27.9715L21.5982 8.34913L27.9715 0Z" fill="#1A2735"/>
</svg>
