<svg width="44" height="49" viewBox="0 0 44 49" fill="none" xmlns="http://www.w3.org/2000/svg">
<g clip-path="url(#clip0)">
<path d="M0.0449219 37.6785H2.0654V33.0651H4.81268V31.0967H0.0449219V37.6785Z" fill="#31455B"/>
<path d="M13.839 31.8192C13.6064 31.5885 13.3303 31.4194 12.9959 31.281C12.6616 31.1426 12.2982 31.0811 11.8912 31.0811L11.9057 31.0964H8.5625V37.6783H10.5975V36.1712H11.9203C12.3273 36.1712 12.6907 36.1097 13.0105 35.9713C13.3448 35.8329 13.6064 35.6638 13.839 35.4331C14.0716 35.2024 14.246 34.941 14.3768 34.6334C14.5077 34.3259 14.5658 33.9875 14.5658 33.6185C14.5658 33.2494 14.5077 32.9111 14.3768 32.6035C14.246 32.3113 14.0716 32.0499 13.839 31.8192ZM12.4872 33.8799C12.4581 33.9568 12.4 34.0337 12.3418 34.0952C12.2837 34.1567 12.211 34.2028 12.1383 34.249C12.0656 34.2797 11.993 34.3105 11.9057 34.3105H10.583L10.5975 32.9726H11.9203C11.993 32.9726 12.0656 32.988 12.1383 33.0341C12.211 33.0648 12.2691 33.111 12.3273 33.1879C12.3854 33.2494 12.429 33.3263 12.4726 33.4032C12.5017 33.4801 12.5308 33.5569 12.5308 33.6492C12.5453 33.7107 12.5308 33.803 12.4872 33.8799Z" fill="#31455B"/>
<path d="M21.5278 33.265H20.7283L19.9289 31.0044H17.8066L19.3038 35.2334H20.8446L20.7138 35.5563C20.6847 35.6179 20.6557 35.6794 20.6121 35.7255C20.5684 35.7716 20.4958 35.787 20.3795 35.787H19.4928V37.7554H20.3795C20.6847 37.7554 20.9609 37.7247 21.208 37.6324C21.4406 37.5401 21.6586 37.4325 21.8476 37.2633C22.0366 37.1095 22.1965 36.9096 22.3273 36.6943C22.4581 36.479 22.5744 36.233 22.6761 35.9562H22.6907L24.464 30.9736H22.3418L21.5278 33.265Z" fill="#31455B"/>
<path d="M3.02778 49C2.45415 49 1.93735 48.8715 1.47736 48.6145C1.01738 48.352 0.654802 47.9916 0.389634 47.5335C0.129878 47.0754 0 46.5642 0 46C0 45.4358 0.129878 44.9246 0.389634 44.4665C0.654802 44.0084 1.01738 43.6508 1.47736 43.3939C1.93735 43.1313 2.45415 43 3.02778 43C3.596 43 4.1101 43.1313 4.57008 43.3939C5.03007 43.6508 5.38994 44.0084 5.6497 44.4665C5.90945 44.919 6.03933 45.4302 6.03933 46C6.03933 46.5698 5.90945 47.0838 5.6497 47.5419C5.38994 47.9944 5.03007 48.352 4.57008 48.6145C4.1101 48.8715 3.596 49 3.02778 49ZM3.02778 48.2542C3.44447 48.2542 3.81787 48.1564 4.14798 47.9609C4.4835 47.7654 4.74596 47.4972 4.93537 47.1564C5.13018 46.8101 5.22759 46.4246 5.22759 46C5.22759 45.5754 5.13018 45.1927 4.93537 44.852C4.74596 44.5056 4.4835 44.2346 4.14798 44.0391C3.81787 43.8436 3.44447 43.7458 3.02778 43.7458C2.61109 43.7458 2.23228 43.8436 1.89135 44.0391C1.55583 44.2346 1.29066 44.5056 1.09585 44.852C0.906441 45.1927 0.811738 45.5754 0.811738 46C0.811738 46.4246 0.906441 46.8101 1.09585 47.1564C1.29066 47.4972 1.55583 47.7654 1.89135 47.9609C2.23228 48.1564 2.61109 48.2542 3.02778 48.2542Z" fill="#31455B"/>
<path d="M15.7449 46.352H14.5598V48.933H13.7643V43.067H14.5598V45.6145H15.7612L17.547 43.067H18.4155L16.3862 45.9078L18.513 48.933H17.5876L15.7449 46.352Z" fill="#31455B"/>
<path d="M30.6444 43.067V48.933H29.8326V46.3184H26.5695V48.933H25.7577V43.067H26.5695V45.5894H29.8326V43.067H30.6444Z" fill="#31455B"/>
<path d="M42.5226 47.4665H39.503L38.8779 48.933H38.0418L40.6151 43.067H41.4187L44 48.933H43.1477L42.5226 47.4665ZM42.2385 46.7961L41.0128 43.9218L39.7871 46.7961H42.2385Z" fill="#31455B"/>
<path d="M28.127 37.6785H30.162V33.0651H31.9208V37.6785H33.9558V31.0967H28.127V37.6785Z" fill="#31455B"/>
<path d="M38.1562 31.0967V37.6785H40.1913V33.0651H41.9646V37.6785H43.9997V31.0967H38.1562Z" fill="#31455B"/>
<path d="M27.1966 5.59767V0H18.9111L13.591 6.68953L8.28543 0H0V24.6513H7.63132V10.5648H7.96564L13.591 17.5927V17.6081H13.6055V17.5927L19.2309 10.5648H19.5652V15.286L27.1966 5.59767Z" fill="#31455B"/>
<path d="M43.9572 0H35.599L19.6387 20.2685V24.6974H27.27V21.2373L29.494 18.3924L34.8432 24.6974H43.9572L33.942 12.8716L43.9572 0Z" fill="#31455B"/>
</g>
<defs>
<clipPath id="clip0">
<rect width="44" height="49" fill="white"/>
</clipPath>
</defs>
</svg>
