<svg width="119" height="40" viewBox="0 0 119 40" fill="none" xmlns="http://www.w3.org/2000/svg">
<path fill-rule="evenodd" clip-rule="evenodd" d="M17 0C15.4811 0 14.0445 0.690449 13.0957 1.87652L1.09566 16.8765C-0.365219 18.7026 -0.365218 21.2974 1.09566 23.1235L13.0957 38.1235C14.0445 39.3096 15.4811 40 17 40H113.597C116.358 40 118.597 37.7614 118.597 35V5C118.597 2.23858 116.358 0 113.597 0H17ZM18.5969 25C21.3583 25 23.5969 22.7614 23.5969 20C23.5969 17.2386 21.3583 15 18.5969 15C15.8355 15 13.5969 17.2386 13.5969 20C13.5969 22.7614 15.8355 25 18.5969 25Z" fill="#FFCF54"/>
<path d="M55.6808 12.5682C55.6808 17.1282 55.3208 17.5242 54.6368 17.5242C54.5528 17.5242 54.3248 17.5002 54.2528 17.4882L54.1328 18.9642C54.3728 19.0242 54.8168 19.0722 55.0568 19.0722C56.6648 19.0722 57.3968 18.3882 57.3968 14.1282H59.0288V19.0002H60.8528V12.5682H55.6808Z" fill="#31455B"/>
<path d="M65.5311 19.1442C66.6951 19.1442 67.5591 18.6882 68.1591 17.9442L67.1151 17.0202C66.6111 17.4882 66.1671 17.6802 65.5551 17.6802C64.7391 17.6802 64.1631 17.2482 63.9831 16.4202H68.4591C68.4711 16.2522 68.4831 16.0842 68.4831 15.9402C68.4831 14.1162 67.4991 12.4482 65.3511 12.4482C63.4791 12.4482 62.1711 13.9602 62.1711 15.7962C62.1711 17.7882 63.5991 19.1442 65.5311 19.1442ZM63.9591 15.2802C64.1031 14.4522 64.5951 13.9122 65.3511 13.9122C66.1191 13.9122 66.5991 14.4642 66.7071 15.2802H63.9591Z" fill="#31455B"/>
<path d="M74.8705 12.5682H69.2065V14.1282H71.1145V19.0002H72.9625V14.1282H74.8705V12.5682Z" fill="#31455B"/>
<path d="M32.2051 32.0002H39.4811L49.9871 13.1642V8.2002H31.6611V13.7422H42.6771L32.2051 32.0002Z" fill="#31455B"/>
<path d="M59.6051 25.1282V23.5682H54.9131V30.0002H56.7371V25.1282H59.6051Z" fill="#31455B"/>
<path d="M62.4207 30.1202C63.3087 30.1202 63.9207 29.7962 64.3647 29.3042V30.0002H66.1287V26.2682C66.1287 25.4042 65.9127 24.6962 65.4327 24.2162C64.9767 23.7602 64.2567 23.4962 63.2607 23.4962C62.1687 23.4962 61.4727 23.7002 60.7647 24.0122L61.2207 25.4042C61.8087 25.1882 62.3007 25.0562 62.9967 25.0562C63.9087 25.0562 64.3767 25.4762 64.3767 26.2322V26.3402C63.9207 26.1842 63.4527 26.0762 62.8047 26.0762C61.2807 26.0762 60.2127 26.7242 60.2127 28.1282C60.2127 29.4242 61.2087 30.1202 62.4207 30.1202ZM62.9727 28.8602C62.3847 28.8602 61.9767 28.5722 61.9767 28.0802C61.9767 27.4802 62.4567 27.1682 63.2367 27.1682C63.6807 27.1682 64.0887 27.2642 64.4007 27.4082V27.7322C64.4007 28.3922 63.8247 28.8602 62.9727 28.8602Z" fill="#31455B"/>
<path d="M67.6982 31.9202H69.5222V29.1602C69.9542 29.6762 70.5542 30.1202 71.5262 30.1202C73.0502 30.1202 74.4542 28.9442 74.4542 26.7962C74.4542 24.6242 73.0262 23.4482 71.5262 23.4482C70.5782 23.4482 69.9662 23.8922 69.5222 24.4922V23.5682H67.6982V31.9202ZM71.0582 28.5722C70.2062 28.5722 69.4982 27.8642 69.4982 26.7962C69.4982 25.7042 70.2062 24.9962 71.0582 24.9962C71.9102 24.9962 72.6302 25.7042 72.6302 26.7722C72.6302 27.8762 71.9102 28.5722 71.0582 28.5722Z" fill="#31455B"/>
<path d="M77.6199 30.1202C78.5079 30.1202 79.1199 29.7962 79.5639 29.3042V30.0002H81.3279V26.2682C81.3279 25.4042 81.1119 24.6962 80.6319 24.2162C80.1759 23.7602 79.4559 23.4962 78.4599 23.4962C77.3679 23.4962 76.6719 23.7002 75.9639 24.0122L76.4199 25.4042C77.0079 25.1882 77.4999 25.0562 78.1959 25.0562C79.1079 25.0562 79.5759 25.4762 79.5759 26.2322V26.3402C79.1199 26.1842 78.6519 26.0762 78.0039 26.0762C76.4799 26.0762 75.4119 26.7242 75.4119 28.1282C75.4119 29.4242 76.4079 30.1202 77.6199 30.1202ZM78.1719 28.8602C77.5839 28.8602 77.1759 28.5722 77.1759 28.0802C77.1759 27.4802 77.6559 27.1682 78.4359 27.1682C78.8799 27.1682 79.2879 27.2642 79.5999 27.4082V27.7322C79.5999 28.3922 79.0239 28.8602 78.1719 28.8602Z" fill="#31455B"/>
<path d="M88.7895 23.5682H86.9655V26.0402H84.7215V23.5682H82.8975V30.0002H84.7215V27.5402H86.9655V30.0002H88.7895V23.5682Z" fill="#31455B"/>
<path d="M95.4489 23.5682H89.7849V25.1282H91.6929V30.0002H93.5409V25.1282H95.4489V23.5682Z" fill="#31455B"/>
<path d="M102.432 23.5682H100.716L98.2083 27.3242V23.5682H96.4443V30.0002H98.1603L100.668 26.2562V30.0002H102.432V23.5682Z" fill="#31455B"/>
<path d="M110.05 23.5682H108.334L105.826 27.3242V23.5682H104.062V30.0002H105.778L108.286 26.2562V30.0002H110.05V23.5682Z" fill="#31455B"/>
</svg>
