<svg width="119" height="40" viewBox="0 0 119 40" fill="none" xmlns="http://www.w3.org/2000/svg">
<path fill-rule="evenodd" clip-rule="evenodd" d="M17 0C15.4811 0 14.0445 0.690449 13.0957 1.87652L1.09566 16.8765C-0.365219 18.7026 -0.365218 21.2974 1.09566 23.1235L13.0957 38.1235C14.0445 39.3096 15.4811 40 17 40H113.597C116.358 40 118.597 37.7614 118.597 35V5C118.597 2.23858 116.358 0 113.597 0H17ZM18.5969 25C21.3583 25 23.5969 22.7614 23.5969 20C23.5969 17.2386 21.3583 15 18.5969 15C15.8355 15 13.5969 17.2386 13.5969 20C13.5969 22.7614 15.8355 25 18.5969 25Z" fill="#FFCF54"/>
</svg>
