<svg width="22" height="22" viewBox="0 0 22 22" fill="none" xmlns="http://www.w3.org/2000/svg">
<path d="M21.4757 21.2968L15.3039 14.8782C16.8781 13.2994 17.8534 11.1229 17.8534 8.72258C17.8534 3.9127 13.9407 0 9.13078 0C4.3209 0 0.408203 3.9127 0.408203 8.72258C0.408203 13.5325 4.3209 17.4452 9.13078 17.4452C11.2421 17.4452 13.1797 16.6904 14.69 15.4381L20.8768 21.8725C20.9582 21.9576 21.067 22 21.1762 22C21.2801 22 21.3835 21.9614 21.4641 21.8841C21.6294 21.725 21.6344 21.4621 21.4757 21.2968ZM9.13078 16.6144C4.77904 16.6144 1.23892 13.0743 1.23892 8.72258C1.23892 4.37084 4.77904 0.830722 9.13078 0.830722C13.4825 0.830722 17.0226 4.37084 17.0226 8.72258C17.0226 13.0743 13.4821 16.6144 9.13078 16.6144Z" fill="#405368"/>
</svg>
