<svg width="20" height="20" viewBox="0 0 20 20" fill="none" xmlns="http://www.w3.org/2000/svg">
<g opacity="0.5">
<path d="M18.4592 12.4884C18.1841 12.4884 17.9611 12.7113 17.9611 12.9865V17.4091C17.9601 18.2341 17.2918 18.9026 16.4668 18.9034H2.49052C1.66553 18.9026 0.99718 18.2341 0.996207 17.4091V4.42899C0.99718 3.60421 1.66553 2.93566 2.49052 2.93468H6.91313C7.18826 2.93468 7.41124 2.7117 7.41124 2.43658C7.41124 2.16165 7.18826 1.93848 6.91313 1.93848H2.49052C1.11567 1.94003 0.00155657 3.05415 0 4.42899V17.4093C0.00155657 18.7841 1.11567 19.8982 2.49052 19.8998H16.4668C17.8416 19.8982 18.9558 18.7841 18.9573 17.4093V12.9865C18.9573 12.7113 18.7343 12.4884 18.4592 12.4884Z" fill="#31455B"/>
<path d="M18.7597 0.656534C17.8844 -0.218845 16.4651 -0.218845 15.5898 0.656534L6.70328 9.54301C6.64238 9.60391 6.59841 9.67941 6.57545 9.7623L5.40685 13.9812C5.35879 14.1542 5.40763 14.3394 5.53449 14.4665C5.66154 14.5933 5.84678 14.6422 6.01975 14.5943L10.2387 13.4255C10.3215 13.4025 10.397 13.3586 10.4579 13.2977L19.3442 4.41099C20.2182 3.53503 20.2182 2.11699 19.3442 1.24103L18.7597 0.656534ZM7.7886 9.86678L15.0615 2.59369L17.4071 4.93925L10.134 12.2123L7.7886 9.86678ZM7.32007 10.807L9.19399 12.6811L6.60191 13.3992L7.32007 10.807ZM18.6399 3.70664L18.1116 4.2349L15.7659 1.88915L16.2943 1.36088C16.7805 0.874649 17.569 0.874649 18.0552 1.36088L18.6399 1.94538C19.1253 2.4322 19.1253 3.22002 18.6399 3.70664Z" fill="#31455B"/>
</g>
</svg>
