<svg width="23" height="23" viewBox="0 0 23 23" fill="none" xmlns="http://www.w3.org/2000/svg">
<circle cx="11.5" cy="11.5" r="11.5" fill="#E5F1F8"/>
<path d="M10.8061 13.2575C10.8061 12.868 10.8678 12.526 10.9913 12.2315C11.1243 11.937 11.2858 11.6852 11.4758 11.4762C11.6658 11.2672 11.9128 11.0297 12.2168 10.7637C12.6253 10.4027 12.9246 10.0892 13.1146 9.8232C13.3141 9.5477 13.4138 9.2152 13.4138 8.8257C13.4138 8.3032 13.2096 7.8852 12.8011 7.5717C12.3926 7.2487 11.8321 7.0872 11.1196 7.0872C9.94158 7.0872 9.03433 7.47195 8.39783 8.24145L7.64258 7.67145C8.45008 6.68345 9.63283 6.18945 11.1908 6.18945C12.1883 6.18945 12.9816 6.4127 13.5706 6.8592C14.1691 7.3057 14.4683 7.90895 14.4683 8.66895C14.4683 9.05845 14.4018 9.4052 14.2688 9.7092C14.1453 10.0037 13.9886 10.2555 13.7986 10.4645C13.6181 10.6735 13.3758 10.9157 13.0718 11.1912C12.6633 11.5617 12.3593 11.8942 12.1598 12.1887C11.9603 12.4737 11.8606 12.83 11.8606 13.2575H10.8061ZM11.3333 16.3212C11.1243 16.3212 10.9486 16.25 10.8061 16.1075C10.6636 15.9555 10.5923 15.7797 10.5923 15.5802C10.5923 15.3712 10.6636 15.2002 10.8061 15.0672C10.9486 14.9247 11.1243 14.8535 11.3333 14.8535C11.5518 14.8535 11.7323 14.9247 11.8748 15.0672C12.0173 15.2002 12.0886 15.3712 12.0886 15.5802C12.0886 15.7797 12.0126 15.9555 11.8606 16.1075C11.7181 16.25 11.5423 16.3212 11.3333 16.3212Z" fill="#31455B"/>
</svg>
