<svg width="22" height="16" viewBox="0 0 22 16" fill="none" xmlns="http://www.w3.org/2000/svg">
<path d="M7.35199 7.78243C9.12835 7.78243 10.577 6.69158 10.577 5.35516C10.577 4.01858 9.13265 2.92773 7.35199 2.92773C5.57132 2.92773 4.12695 4.01858 4.12695 5.35516C4.12695 6.69158 5.57563 7.78243 7.35199 7.78243ZM7.35199 3.78993C8.64535 3.78993 9.71467 4.50573 9.71467 5.35501C9.71467 6.20444 8.63244 6.92008 7.35199 6.92008C6.07138 6.92008 4.98915 6.20444 4.98915 5.35501C4.98915 4.50573 6.07138 3.78562 7.35199 3.78562V3.78993Z" fill="#405368"/>
<path d="M21.0229 9.83887H14.6591V5.35045C14.6591 2.40144 11.3781 0 7.32964 0C3.28101 0 0 2.40144 0 5.35045V10.6537C0 13.3699 2.78094 15.6119 6.3638 15.9525H6.43715C6.73454 15.9785 7.0364 16 7.34255 16H21.0229C21.261 16 21.4541 15.8069 21.4541 15.5688V10.2699C21.4541 10.032 21.261 9.83887 21.0229 9.83887ZM7.35116 0.866498C10.908 0.866498 13.8185 2.87997 13.8185 5.35491C13.8185 7.8297 10.9254 9.84317 7.35116 9.84317C3.77692 9.84317 0.883874 7.8297 0.883874 5.35476C0.883874 2.87997 3.79844 0.866498 7.35116 0.866498ZM13.8185 7.86845V9.83887H11.3177C12.2938 9.39647 13.1454 8.71957 13.7968 7.86845H13.8185ZM20.5917 15.1377H19.7294V12.956C19.7294 12.7181 19.5363 12.5248 19.2984 12.5248C19.0603 12.5248 18.8672 12.7179 18.8672 12.956V15.142H17.1425V13.9562C17.1425 13.7182 16.9494 13.5251 16.7113 13.5251C16.4733 13.5251 16.2802 13.7182 16.2802 13.9562V15.142H14.5556V13.9562C14.5556 13.7182 14.3625 13.5251 14.1245 13.5251C13.8864 13.5251 13.6933 13.7182 13.6933 13.9562V15.142H11.9686V12.956C11.9686 12.7181 11.7755 12.5248 11.5374 12.5248C11.2995 12.5248 11.1062 12.7179 11.1062 12.956V15.142H9.45506V13.9562C9.45506 13.7182 9.26177 13.5251 9.02388 13.5251C8.78584 13.5251 8.59271 13.7182 8.59271 13.9562V15.142H7.35086C7.18709 15.142 7.02763 15.142 6.86802 15.142V13.9562C6.86802 13.7182 6.67488 13.5251 6.43684 13.5251C6.19881 13.5251 6.00567 13.7182 6.00567 13.9562V15.0385C3.09571 14.6073 0.905402 12.8051 0.905402 10.6494V7.86845C2.13849 9.55424 4.56591 10.7011 7.37269 10.7011H20.5917V15.1377Z" fill="#405368"/>
</svg>
