<svg width="28" height="28" viewBox="0 0 28 28" fill="none" xmlns="http://www.w3.org/2000/svg">
<path d="M0 0H24C26.2091 0 28 1.79086 28 4V28L0 0Z" fill="#33B6FF"/>
<path d="M19.0781 9.77195C18.7698 10.076 18.2695 10.076 17.9614 9.77195L16.2312 8.06557C15.9229 7.76165 15.9229 7.26828 16.2312 6.96437C16.5394 6.66031 17.0396 6.66031 17.3479 6.96437L18.3788 7.98089C18.4566 8.0575 18.5829 8.0575 18.6609 7.98089L21.4521 5.22805C21.7602 4.92398 22.2605 4.92398 22.5688 5.22805C22.7168 5.37406 22.8 5.57217 22.8 5.77865C22.8 5.98512 22.7168 6.18323 22.5688 6.32924L19.0781 9.77195Z" fill="white"/>
</svg>
