<svg width="30" height="30" viewBox="0 0 30 30" fill="none" xmlns="http://www.w3.org/2000/svg">
<path opacity="0.1" d="M15 0C6.71484 0 0 6.71484 0 15C0 23.2852 6.71484 30 15 30C23.2852 30 30 23.2852 30 15C30 6.71484 23.2852 0 15 0ZM15 27.6562C8.00977 27.6562 2.34375 21.9902 2.34375 15C2.34375 8.00977 8.00977 2.34375 15 2.34375C21.9902 2.34375 27.6562 8.00977 27.6562 15C27.6562 21.9902 21.9902 27.6562 15 27.6562Z" fill="white"/>
<path d="M18.5625 12.7012H15.9551V10.7969C15.9551 10.2109 16.5586 10.0762 16.8398 10.0762C17.1211 10.0762 18.5273 10.0762 18.5273 10.0762V7.50391L16.5938 7.49219C13.957 7.49219 13.3594 9.4082 13.3594 10.6387V12.6953H11.4492V15.3496H13.3594C13.3594 18.748 13.3594 22.498 13.3594 22.498H15.9551C15.9551 22.498 15.9551 18.7129 15.9551 15.3496H18.1641L18.5625 12.7012Z" fill="white"/>
</svg>
