<svg width="26" height="26" viewBox="0 0 26 26" fill="none" xmlns="http://www.w3.org/2000/svg">
<g clip-path="url(#clip0)">
<path d="M21.9664 24.2158H20.4376V21.4757C20.4376 18.7034 18.9162 16.1551 16.1537 14.3001C15.8102 14.0694 15.5966 13.5714 15.5966 12.9999C15.5966 12.4285 15.8102 11.9306 16.1538 11.6998C18.9162 9.84491 20.4376 7.29664 20.4378 4.52436V1.7842H21.9664C22.459 1.7842 22.8583 1.38483 22.8583 0.892055C22.8583 0.39928 22.459 0 21.9664 0H4.03268C3.54008 0 3.14062 0.39928 3.14062 0.891967C3.14062 1.38474 3.54008 1.78411 4.03268 1.78411H5.56143V4.52444C5.56143 7.29673 7.08265 9.84499 9.84539 11.6998C10.1889 11.9307 10.4024 12.4285 10.4024 13C10.4024 13.5716 10.1889 14.0695 9.84521 14.3004C7.08265 16.1552 5.56143 18.7035 5.56143 21.4758V24.2159H4.03268C3.54008 24.2159 3.14062 24.6154 3.14062 25.1081C3.14062 25.6008 3.54008 26.0001 4.03268 26.0001H21.9663C22.4589 26.0001 22.8583 25.6009 22.8583 25.1081C22.8583 24.6153 22.459 24.2158 21.9664 24.2158ZM7.34562 21.4757C7.34562 18.5627 9.5347 16.6578 10.8398 15.7817C11.6831 15.2155 12.1866 14.1756 12.1866 13C12.1866 11.8245 11.6831 10.7846 10.8398 10.2185C9.5347 9.34241 7.34562 7.4375 7.34562 4.52453V1.7842H18.6534L18.6533 4.52453C18.6533 7.4375 16.4642 9.34242 15.1593 10.2184C14.3158 10.7847 13.8123 11.8246 13.8123 13C13.8123 14.1757 14.3158 15.2154 15.1591 15.7817C16.4642 16.6578 18.6533 18.5627 18.6534 21.4757V24.2158H7.34562V21.4757Z" fill="#5CA8FF"/>
</g>
<defs>
<clipPath id="clip0">
<rect width="26" height="26" fill="white"/>
</clipPath>
</defs>
</svg>
