<svg width="30" height="30" viewBox="0 0 30 30" fill="none" xmlns="http://www.w3.org/2000/svg">
<g opacity="0.1">
<path d="M15 0C6.71484 0 0 6.71484 0 15C0 23.2852 6.71484 30 15 30C23.2852 30 30 23.2852 30 15C30 6.71484 23.2852 0 15 0ZM15 27.6562C8.00977 27.6562 2.34375 21.9902 2.34375 15C2.34375 8.00977 8.00977 2.34375 15 2.34375C21.9902 2.34375 27.6562 8.00977 27.6562 15C27.6562 21.9902 21.9902 27.6562 15 27.6562Z" fill="white"/>
</g>
<g clip-path="url(#clip0)">
<path d="M15 17.25C16.2426 17.25 17.25 16.2426 17.25 15C17.25 13.7574 16.2426 12.75 15 12.75C13.7574 12.75 12.75 13.7574 12.75 15C12.75 16.2426 13.7574 17.25 15 17.25Z" fill="white"/>
<path d="M21.7087 12.2173C21.6765 11.501 21.5617 11.0097 21.3964 10.5781C21.2265 10.1281 20.9602 9.71939 20.6158 9.38418C20.2806 9.0398 19.8719 8.77347 19.4219 8.60357C18.9903 8.43827 18.5036 8.32347 17.7827 8.29133C17.0617 8.25918 16.8321 8.25 15 8.25C13.1679 8.25 12.9383 8.25918 12.2173 8.29133C11.4964 8.32347 11.0097 8.43827 10.5781 8.60357C10.1281 8.77347 9.71939 9.0398 9.38418 9.38418C9.0398 9.71939 8.77347 10.1281 8.60357 10.5781C8.43827 11.0097 8.32347 11.4964 8.29133 12.2173C8.25918 12.9383 8.25 13.1679 8.25 15C8.25 16.8321 8.25918 17.0617 8.29133 17.7827C8.32347 18.499 8.43827 18.9903 8.60357 19.4219C8.77347 19.8719 9.0398 20.2806 9.38418 20.6158C9.71939 20.9602 10.1281 21.2265 10.5781 21.3964C11.0051 21.5617 11.4964 21.6765 12.2173 21.7087C12.9383 21.7408 13.1679 21.75 15 21.75C16.8321 21.75 17.0617 21.7408 17.7827 21.7087C18.499 21.6765 18.9903 21.5617 19.4219 21.3964C20.3265 21.0474 21.0474 20.3311 21.3964 19.4219C21.5617 18.9903 21.6765 18.5036 21.7087 17.7827C21.7408 17.0617 21.75 16.8321 21.75 15C21.75 13.1679 21.7408 12.9383 21.7087 12.2173ZM15 18.4668C13.0852 18.4668 11.5332 16.9148 11.5332 15C11.5332 13.0852 13.0852 11.5332 15 11.5332C16.9148 11.5332 18.4668 13.0852 18.4668 15C18.4668 16.9148 16.9148 18.4668 15 18.4668ZM18.6046 12.2082C18.1592 12.2082 17.7964 11.8454 17.7964 11.4C17.7964 10.9546 18.1592 10.5918 18.6046 10.5918C19.05 10.5918 19.4128 10.9546 19.4128 11.4C19.4128 11.8454 19.05 12.2082 18.6046 12.2082Z" fill="white"/>
</g>
<defs>
<clipPath id="clip0">
<rect width="13.5" height="13.5" fill="white" transform="matrix(-1 0 0 1 21.75 8.25)"/>
</clipPath>
</defs>
</svg>
