<svg width="27" height="33" viewBox="0 0 27 33" fill="none" xmlns="http://www.w3.org/2000/svg">
<path fill-rule="evenodd" clip-rule="evenodd" d="M3.76576 23.4378H3.7836L3.8193 23.42L3.87284 23.4021L3.90853 23.3664L4.01562 23.3129L4.14055 23.2415L4.24763 23.1523L4.37256 23.0809L4.4618 23.0273L4.49749 22.9916L4.53318 22.9738L6.81762 21.5282L6.97825 21.4211L7.13887 21.2962L7.2995 21.1712L7.46012 21.0284L7.62075 20.8857L7.78137 20.725L7.942 20.5644L8.10262 20.4038L8.2454 20.2253L8.40602 20.0468L8.53095 19.8505L8.67373 19.6542L8.79866 19.4579L8.90574 19.2616L9.01283 19.0474L9.11991 18.8511L9.17345 18.7083L9.22699 18.5834L9.33408 18.3692L9.42331 18.1729L9.5304 17.9766L9.61963 17.7981L9.74456 17.6375L9.88734 17.459L10.0301 17.2805L10.2621 17.0485L10.4941 16.8344L10.744 16.638L10.9939 16.4774L11.2437 16.3168L11.5293 16.174L11.797 16.0669L12.0825 15.9598L12.3859 15.8885L12.6893 15.8349L12.9927 15.7992L13.2962 15.7814L13.6174 15.7992L13.9208 15.8349L14.2421 15.8885L14.5633 15.9777L14.6704 15.9955L14.7775 16.0491L15.0452 16.1383L15.1701 16.1919L15.2772 16.2454L15.3664 16.2989L15.42 16.3168L15.4378 16.3525L15.3486 16.4239L15.2415 16.5131L14.9916 16.6737L14.7775 16.8165L14.6704 16.8879L14.5633 16.9593L14.4562 17.0307L14.3313 17.1199L14.0636 17.2984L13.7959 17.4769L13.5103 17.6553L13.2426 17.8516L12.9749 18.048L12.8678 18.1372L12.7607 18.2264L12.6715 18.3335L12.5823 18.4228L12.4752 18.5655L12.3859 18.7262L12.2967 18.8868L12.2432 19.0474L12.2075 19.208L12.1896 19.3687L12.1718 19.5293V19.7078L12.1896 19.8684L12.2253 20.0112L12.2789 20.1718L12.3324 20.3324L12.4038 20.4752L12.4752 20.618L12.5823 20.7429L12.6715 20.8678L12.7964 20.9928L12.9035 21.0998L13.0284 21.1891L13.1712 21.2783L13.3318 21.3497L13.4746 21.4211L13.6352 21.4568L13.7959 21.4925L13.9743 21.5103H14.1528L14.3313 21.4925L14.5098 21.4568L14.7061 21.4032L14.9024 21.3318L15.0987 21.2248L15.295 21.0998L17.6866 19.4936L17.7044 19.8148L17.7223 20.1182V20.3859L17.7044 20.6715L17.6687 20.9214L17.633 21.1712L17.5616 21.4032L17.5081 21.6352L17.4188 21.8494L17.3296 22.0636L17.2225 22.2777L17.0976 22.4562L16.9905 22.6525L16.8477 22.831L16.7228 23.0273L16.5622 23.188L16.4194 23.3664L16.2409 23.527L16.0803 23.6698L15.884 23.7948L15.6698 23.9375L15.4735 24.0625L15.2415 24.1695L15.0095 24.2588L14.7775 24.348L14.5276 24.4194L14.2956 24.4729L14.0457 24.5265L13.7959 24.5622L13.546 24.58L13.2962 24.5979L13.0463 24.58L12.8857 24.5622H12.7429L12.6001 24.5443L12.4752 24.5265L12.2432 24.4908L12.029 24.4551L11.9041 24.4373L11.7791 24.4194L11.6542 24.4016H11.5114H11.3508H11.1723H10.976L10.7619 24.4194L10.3692 24.4551L9.97657 24.5086L9.60178 24.58L9.24484 24.6693L8.8879 24.7764L8.53095 24.9013L8.19186 25.0441L7.85276 25.2047L7.79922 25.2404L7.74568 25.2582L7.65644 25.3296L7.58505 25.3832L7.47797 25.4545L5.65756 26.7395V26.918V27.0965L5.62186 27.275L5.60401 27.4534L5.51478 27.8104L5.4077 28.1673L5.30061 28.5243L5.17568 28.8812L5.08645 29.2203L5.05075 29.3988L5.03291 29.5772L5.01506 29.6843V29.7914L5.03291 29.9877L5.0686 30.1484L5.12214 30.3268L5.17568 30.4696L5.26492 30.6124L5.35415 30.7373L5.44339 30.8801L5.55047 30.9872L5.65756 31.0943L5.78249 31.1835L5.90742 31.2727L6.03235 31.3441L6.17512 31.4334L6.3179 31.5047L6.47853 31.6118L6.85332 31.826L7.04964 31.9331L7.22811 32.0402L7.42443 32.1294L7.6029 32.2008L7.79922 32.2543L7.97769 32.3079L8.17401 32.3257H8.35248L8.53095 32.3079L8.72727 32.2543L8.83436 32.2186L8.92359 32.1651L9.03067 32.1115L9.11991 32.058L9.22699 31.9866L9.33408 31.9152L9.42331 31.826L9.5304 31.7189L10.8511 30.4161L11.0117 30.2911L11.1723 30.2019L11.3151 30.1127L11.4757 30.0591L11.6542 30.0056L11.8148 29.9877L11.9933 29.9699L12.1718 29.952H12.3502L12.5466 29.9699L12.9392 29.9877L13.3497 30.0056H13.5639L13.778 29.9877H14.01H14.2064H14.3848H14.5633L14.7239 30.0056L14.8846 30.0234L15.0273 30.0591L15.1523 30.0948L15.2772 30.1484L15.42 30.2197L15.5449 30.309L15.6698 30.3982L15.7948 30.5231L15.9375 30.6481L16.0803 30.7909L16.2231 30.9693L17.0798 31.8438L17.1868 31.9509L17.3118 32.0402L17.4367 32.1472L17.5795 32.2186L17.7223 32.29L17.9007 32.3257L18.0792 32.3614H18.1863L18.2934 32.3793H18.4183L18.5075 32.3614L18.7038 32.3436L18.8645 32.29L19.0251 32.2543L19.1679 32.1829L19.3106 32.1115L19.4534 32.0223L19.5962 31.9331L19.8818 31.7903L20.1673 31.6297L20.435 31.469L20.7027 31.3084L20.8277 31.2013L20.9526 31.0943L21.0597 31.005L21.1668 30.8801L21.2738 30.7552L21.3452 30.6124L21.4166 30.4696L21.488 30.309L21.5237 30.1305L21.5415 29.952L21.5237 29.7557L21.5059 29.5772L21.4702 29.3809L21.4345 29.1846L21.3809 29.0061L21.3452 28.8455L21.2917 28.6313L21.2203 28.435L21.1668 28.2387L21.1132 28.0602L21.0597 27.8818L21.024 27.7211L20.9883 27.5605L20.9526 27.3999L20.9347 27.2393V27.0786V26.918L20.9526 26.7752L21.0061 26.5968L21.0597 26.4361L21.1311 26.2577L21.2203 26.0613L21.3809 25.8293L21.5415 25.5795L21.6308 25.4545L21.72 25.3118L21.8093 25.169L21.8985 25.0084L21.9877 24.8299L22.077 24.6693L22.1484 24.5265L22.2197 24.3837L22.3625 24.116L22.4518 23.9911L22.5231 23.884L22.6124 23.7769L22.7016 23.6877L22.8265 23.5984L22.9336 23.4914L23.0764 23.42L23.2192 23.3486L23.3798 23.2772L23.5761 23.2236L23.6832 23.188L23.7903 23.1523L23.9152 23.1344L24.058 23.0987L24.3436 23.0273L24.647 22.9559L24.9504 22.8846L25.0931 22.8489L25.2359 22.8132L25.343 22.7596L25.4679 22.7239L25.5572 22.6882L25.6464 22.6525L25.7892 22.5811L25.932 22.4919L26.0569 22.4027L26.1104 22.3491L26.164 22.3134L26.2532 22.1885L26.3424 22.0636L26.4138 21.9208L26.5031 21.778L26.5566 21.6174L26.6101 21.4389L26.6458 21.2605L26.6637 21.0641V20.8678V20.6537L26.6815 20.4216V20.1896V19.9576V19.7434L26.6637 19.5293V19.333L26.628 19.1545L26.5923 18.976L26.5209 18.7975L26.4674 18.6369L26.3781 18.4941L26.2889 18.3514L26.1818 18.2443L26.0926 18.1372L25.9676 18.048L25.8427 17.9587L25.6999 17.8873L25.5572 17.816L25.3965 17.7446L25.2359 17.691L24.8968 17.6018L24.5399 17.5125L24.1829 17.4233L23.826 17.3341L23.6475 17.2984L23.4869 17.2448L23.2906 17.1556L23.1121 17.0664L22.9515 16.9593L22.8087 16.8522L22.6838 16.7273L22.5767 16.6023L22.4696 16.4596L22.3804 16.3168L22.2911 16.1562L22.2019 15.9777L22.1127 15.8171L22.0234 15.6207L21.9342 15.4423L21.8271 15.246L21.7022 15.0318L21.5594 14.8176L21.4702 14.6927L21.3988 14.5856L21.256 14.3536L21.1489 14.1394L21.1132 14.0323L21.0597 13.9253L21.0418 13.8182L21.024 13.6933L21.0061 13.5862L20.9883 13.4612L21.0061 13.3185L21.024 13.1935L21.0418 13.0508L21.0775 12.8901L21.1132 12.7474L21.1489 12.5867L21.2025 12.4083L21.256 12.2298L21.3809 11.855L21.488 11.4624L21.5415 11.266L21.5772 11.0697L21.6129 10.8734L21.6308 10.6949V10.4986L21.6129 10.338L21.5951 10.1774L21.5415 10.0346L21.4702 9.8918L21.3809 9.73118L21.2917 9.60625L21.2025 9.48132L21.0954 9.37423L20.9883 9.26715L20.8634 9.17791L20.7384 9.08868L20.203 8.76743L19.6497 8.46403L19.4891 8.37479L19.3285 8.28555L19.1857 8.21417L19.0429 8.16062L18.8823 8.10708L18.7217 8.08924L18.6146 8.07139H18.5075H18.4183H18.2934L18.097 8.08924L17.9186 8.14278L17.7579 8.19632L17.5973 8.26771L17.4724 8.35694L17.3475 8.46403L17.2225 8.55326L17.1333 8.66035L16.9013 8.87451L16.6871 9.08868L16.4729 9.30284L16.2588 9.53486L16.1695 9.62409L16.0625 9.74902L15.9375 9.85611L15.8126 9.96319L15.6877 10.0703L15.5627 10.1595L15.4378 10.2487L15.295 10.3023L15.1166 10.3737L14.9202 10.4094L14.7239 10.4272H14.5276L14.1171 10.4094L13.7066 10.3915L13.5103 10.3737L13.2783 10.3915L12.85 10.4094L12.4216 10.4272L12.2075 10.4094H12.0112L11.8505 10.3737L11.7256 10.3558L11.6007 10.3201L11.4757 10.2666L11.3865 10.2309L11.2794 10.1774L11.1009 10.0524L10.9225 9.90965L10.7619 9.74902L10.6012 9.57055L10.4228 9.39208L10.2086 9.16007L9.99442 8.9459L9.7981 8.73173L9.58394 8.51757L9.45901 8.42833L9.33408 8.32125L9.1913 8.24986L9.04852 8.16062L8.90574 8.10708L8.74512 8.05354L8.56665 8.01785L8.40602 8H8.2097L8.01338 8.03569L7.79922 8.08924L7.56721 8.16062L6.46068 8.78528L6.30006 8.87451L6.15728 8.96375L6.03235 9.03514L5.90742 9.12437L5.78249 9.21361L5.6754 9.30284L5.56832 9.40993L5.47908 9.53486L5.38985 9.69548L5.30061 9.83826L5.22922 9.98104L5.17568 10.1417L5.13999 10.3023L5.12214 10.4808V10.57L5.13999 10.6771V10.7842L5.15784 10.8912L5.19353 11.0697L5.22922 11.2482L5.31846 11.6051L5.42554 11.9621L5.47908 12.1227L5.53263 12.2833L5.60401 12.5153L5.65756 12.7474L5.69325 12.9437L5.72895 13.1221V13.2828V13.4434V13.5862L5.69325 13.7289L5.65756 13.8717L5.60401 13.9967L5.53263 14.1216L5.46124 14.2644L5.38985 14.4071L5.28277 14.5499L5.19353 14.6927L5.0686 14.8712L4.89013 15.1746L4.71166 15.478L4.56888 15.7635L4.40825 16.0491L4.24763 16.3168L4.17624 16.4417L4.087 16.5666L3.97992 16.6737L3.89069 16.763L3.7836 16.8701L3.65867 16.9414L3.53374 16.995L3.39096 17.0664L3.23034 17.1199L3.06972 17.1735L2.73062 17.2627L2.37368 17.3519L1.99888 17.4412L1.64194 17.5304L1.46347 17.5661L1.30284 17.6196L1.14222 17.6732L0.999442 17.7446L0.838818 17.816L0.69604 17.9052L0.588957 17.9944L0.481874 18.1015L0.392638 18.2086L0.303402 18.3514L0.232013 18.4763L0.160625 18.6369L0.0892359 18.8154L0.0535415 19.0117L0.0178472 19.208V19.4043L0 19.8148V20.2253V20.4573V20.6537V20.85L0.0178472 21.0284L0.0356944 21.2069L0.0713887 21.3854L0.12493 21.5639L0.214166 21.7423L0.285555 21.903L0.374791 22.0279L0.464027 22.1528L0.57111 22.2599L0.678193 22.3491L0.82097 22.4384L0.963748 22.5098L1.12437 22.5811L1.26715 22.6347L1.42777 22.6882L1.60625 22.7239L1.76687 22.7775L2.15951 22.8667L2.55215 22.9738L2.92694 23.0809L3.08756 23.1344L3.26603 23.188L3.40881 23.2415L3.55159 23.3129L3.65867 23.3664L3.76576 23.4378Z" fill="white"/>
<path fill-rule="evenodd" clip-rule="evenodd" d="M12.6001 7.49582H12.9928L13.3497 7.46012L13.7245 7.40658L14.0636 7.33519L14.4206 7.24596L14.7418 7.12103L15.0631 6.9961L15.3665 6.85332L15.6699 6.69269L15.9554 6.51422L16.2231 6.3179L16.4908 6.10374L16.7407 5.88957L16.9727 5.63971L17.2047 5.38985L17.4189 5.13999L17.6152 4.87228L17.8115 4.58673L17.99 4.30117L18.1506 3.99777L18.3112 3.69437L18.454 3.37312L18.579 3.05187L18.686 2.73062L18.7931 2.40937L18.8824 2.07027L18.9537 1.73118L19.0073 1.39208L19.0608 1.03514L19.0965 0.69604L19.1144 0.356944V0L18.7574 0.0356944L18.4005 0.0892359L18.0435 0.160625L17.7044 0.249861L17.3653 0.356944L17.0262 0.481874L16.705 0.624651L16.4016 0.767429L16.0982 0.945901L15.7948 1.12437L15.5092 1.32069L15.2415 1.51701L14.9738 1.74902L14.724 1.98104L14.4741 2.21305L14.2421 2.46291L14.0279 2.73062L13.8316 2.99833L13.6353 3.28388L13.4568 3.56944L13.2962 3.87284L13.1534 4.17624L13.0285 4.47964L12.9035 4.80089L12.7965 5.12214L12.7251 5.44339L12.6537 5.78249L12.6001 6.12158L12.5823 6.46068L12.5645 6.79978L12.5823 7.15672L12.6001 7.49582Z" fill="white"/>
</svg>
