<svg width="20" height="24" viewBox="0 0 20 24" fill="none" xmlns="http://www.w3.org/2000/svg">
<path d="M12.9952 6.86387C13.2569 6.86387 13.4693 6.64988 13.4693 6.38506C13.4693 6.1203 13.2569 5.90625 12.9952 5.90625H6.48581C6.22412 5.90625 6.01172 6.12024 6.01172 6.38506C6.01172 6.64982 6.22412 6.86387 6.48581 6.86387H12.9952Z" fill="#2B3641"/>
<path d="M19.5259 5.90631H16.2966C16.0349 5.90631 15.8225 6.1203 15.8225 6.38512C15.8225 6.64988 16.0349 6.86393 16.2966 6.86393H19.0518V23.043H0.948126V6.86387H3.54552C3.8072 6.86387 4.01961 6.64988 4.01961 6.38506C4.01961 6.1203 3.8072 5.90625 3.54552 5.90625H0.474092C0.212405 5.90625 0 6.12024 0 6.38506V23.5217C0 23.7865 0.212405 24.0005 0.474092 24.0005H19.5259C19.7876 24.0005 20 23.7865 20 23.5217V6.38506C20 6.1203 19.7881 5.90631 19.5259 5.90631Z" fill="white"/>
<path d="M14.6001 7.93967C14.8617 7.93967 15.0741 7.72568 15.0741 7.46086V3.9696C15.0741 1.78106 12.7346 0 9.84753 0C6.97184 0 4.63281 1.78106 4.63281 3.9696V7.46092C4.63281 7.72568 4.84522 7.93973 5.1069 7.93973C5.36859 7.93973 5.581 7.72574 5.581 7.46092V3.9696C5.581 2.3087 7.49527 0.95756 9.85943 0.95756C12.2118 0.95756 14.126 2.3087 14.126 3.9696V7.46092C14.126 7.72568 14.3379 7.93967 14.6001 7.93967Z" fill="white"/>
<path d="M3.88672 8.69365C3.88672 9.37255 4.4343 9.9251 5.10697 9.9251C5.77965 9.9251 6.32722 9.37261 6.32722 8.69365C6.32722 8.42889 6.11482 8.21484 5.85313 8.21484C5.59144 8.21484 5.37904 8.42883 5.37904 8.69365C5.37904 8.8445 5.25721 8.96754 5.10691 8.96754C4.95709 8.96754 4.83479 8.8445 4.83479 8.69365C4.83479 8.42889 4.62238 8.21484 4.36069 8.21484C4.09901 8.21484 3.88672 8.42889 3.88672 8.69365Z" fill="white"/>
<path d="M14.5993 9.9251C15.272 9.9251 15.8195 9.37261 15.8195 8.69365C15.8195 8.42889 15.6071 8.21484 15.3454 8.21484C15.0837 8.21484 14.8713 8.42883 14.8713 8.69365C14.8713 8.8445 14.7495 8.96754 14.5992 8.96754C14.4489 8.96754 14.3271 8.8445 14.3271 8.69365C14.3271 8.42889 14.1147 8.21484 13.853 8.21484C13.5913 8.21484 13.3789 8.42883 13.3789 8.69365C13.379 9.37255 13.9265 9.9251 14.5993 9.9251Z" fill="white"/>
</svg>
