<svg width="22" height="27" viewBox="0 0 22 27" fill="none" xmlns="http://www.w3.org/2000/svg">
<path d="M10.2332 1.00611C5.46468 1.17342 1.50323 4.89374 1.04557 9.64257C0.952072 10.5923 1.0062 11.5126 1.17352 12.3934C1.17352 12.3934 1.18828 12.4968 1.23749 12.6936C1.38512 13.353 1.60657 13.9928 1.88215 14.5932C2.84176 16.8667 5.06116 20.6707 10.0413 24.8093C10.3464 25.0652 10.7942 25.0652 11.1042 24.8093C16.0843 20.6756 18.3037 16.8716 19.2682 14.5882C19.5488 13.9879 19.7653 13.353 19.9129 12.6887C19.9572 12.4968 19.9769 12.3885 19.9769 12.3885C20.0901 11.798 20.1491 11.1927 20.1491 10.5726C20.1491 5.16932 15.6759 0.814187 10.2332 1.00611ZM10.5727 15.3362C8.00395 15.3362 5.92234 13.2546 5.92234 10.6858C5.92234 8.11704 8.00395 6.03543 10.5727 6.03543C13.1415 6.03543 15.2231 8.11704 15.2231 10.6858C15.2231 13.2546 13.1415 15.3362 10.5727 15.3362Z" stroke="#5CA8FF" stroke-width="2"/>
</svg>
