<svg width="27" height="26" viewBox="0 0 27 26" fill="none" xmlns="http://www.w3.org/2000/svg">
<path d="M24.5212 19.985L20.8034 16.2672C20.0639 15.5278 18.8408 15.5554 18.0737 16.3156L16.201 18.1883C16.0835 18.1261 15.9591 18.057 15.8347 17.981C14.653 17.3245 13.036 16.4262 11.336 14.7262C9.62915 13.0193 8.73079 11.4023 8.0743 10.2137C8.0052 10.0893 7.93609 9.96488 7.8739 9.85431L9.1316 8.60352L9.74663 7.98849C10.5137 7.22143 10.5344 5.99828 9.795 5.25886L6.07718 1.54104C5.33776 0.801622 4.11461 0.822353 3.34755 1.58941L2.29716 2.64671L2.3248 2.67435C1.97237 3.12353 1.68213 3.64182 1.461 4.19465C1.26059 4.72676 1.13621 5.23122 1.07401 5.73568C0.59028 9.80594 2.44919 13.5238 7.49382 18.5615C14.4596 25.5341 20.0778 25.0089 20.3196 24.9813C20.8448 24.9191 21.3562 24.7947 21.8676 24.5943C22.4204 24.3801 22.9387 24.0829 23.381 23.7374L23.4017 23.7581L24.459 22.7216C25.233 21.9476 25.2606 20.7245 24.5212 19.985Z" stroke="#5CA8FF" stroke-width="2"/>
</svg>
