<svg width="18" height="18" viewBox="0 0 18 18" fill="none" xmlns="http://www.w3.org/2000/svg">
<path d="M16.6413 13.6709L14.1704 11.194C13.6782 10.7027 12.8632 10.7177 12.3538 11.2283L11.109 12.4757C11.0303 12.4323 10.9489 12.3869 10.8633 12.3388C10.0772 11.9022 9.00124 11.3038 7.86903 10.1682C6.73347 9.03021 6.1359 7.95017 5.69898 7.16175C5.65288 7.07823 5.6087 6.99769 5.56508 6.92122L6.40057 6.08507L6.81133 5.67287C7.32143 5.16149 7.3355 4.34483 6.84448 3.8521L4.37353 1.375C3.88251 0.882959 3.0671 0.897886 2.55701 1.40927L1.86061 2.11126L1.87964 2.13019C1.64613 2.42883 1.451 2.77325 1.30579 3.14468C1.17193 3.49823 1.08859 3.83561 1.05049 4.17368C0.724215 6.88468 1.96026 9.36234 5.31474 12.7245C9.95165 17.3716 13.6884 17.0205 13.8496 17.0034C14.2007 16.9613 14.5372 16.8772 14.8791 16.7441C15.2465 16.6003 15.5899 16.405 15.8877 16.1715L15.9029 16.185L16.6084 15.4926C17.1174 14.9813 17.1321 14.1644 16.6413 13.6709Z" stroke="#2B3641"/>
</svg>
