<svg width="16" height="16" viewBox="0 0 16 16" fill="none" xmlns="http://www.w3.org/2000/svg">
<path d="M15.9695 11.4297C15.8636 11.1039 15.5138 10.9258 15.188 11.0315L14.3814 11.2935C14.8755 10.2717 15.1343 9.1481 15.1343 8.00073C15.1343 3.82819 11.7397 0.433594 7.56714 0.433594C3.39459 0.433594 0 3.82819 0 8.00073C0 12.1733 3.39459 15.5679 7.56714 15.5679C7.90967 15.5679 8.18739 15.2901 8.18739 14.9476C8.18739 14.6051 7.90967 14.3273 7.56714 14.3273C4.07861 14.3273 1.24051 11.4893 1.24051 8.00073C1.24051 4.51221 4.07861 1.67411 7.56714 1.67411C11.0557 1.67411 13.8938 4.51221 13.8938 8.00073C13.8938 8.96198 13.6769 9.90303 13.2624 10.758L12.9869 9.90973C12.8811 9.58402 12.5311 9.40578 12.2054 9.51153C11.8796 9.61742 11.7012 9.96734 11.8071 10.2931L12.5385 12.5443C12.6236 12.8064 12.8667 12.9731 13.1282 12.9731C13.1917 12.9731 13.2563 12.9633 13.32 12.9426L15.5712 12.2113C15.897 12.1054 16.0753 11.7556 15.9695 11.4297Z" fill="#2B3641"/>
</svg>
