<svg width="22" height="25" viewBox="0 0 22 25" fill="none" xmlns="http://www.w3.org/2000/svg">
<path d="M0.614283 7.93476C0.884455 5.56057 2.06268 3.43384 3.93245 1.9458C5.53245 0.672538 7.45671 0 9.49709 0C12.2418 0 14.7953 1.23027 16.5019 3.3756C17.9899 5.24537 18.6608 7.58235 18.3907 9.95654C18.1205 12.3307 16.9423 14.4575 15.0725 15.9451C13.4725 17.2187 11.5486 17.8913 9.50822 17.8913C6.76349 17.8913 4.21 16.6606 2.50301 14.5153C1.01456 12.6459 0.344109 10.3089 0.614283 7.93476ZM3.14917 14.0014C4.69876 15.9484 7.01638 17.0655 9.50786 17.0655C11.3594 17.0655 13.1057 16.4545 14.5578 15.299C16.2549 13.9489 17.3245 12.0184 17.5694 9.86359C17.8144 7.70875 17.2059 5.587 15.8554 3.89033C14.3062 1.94331 11.9887 0.826226 9.49673 0.826226C7.64516 0.826226 5.89889 1.43681 4.44637 2.59273C2.7493 3.94319 1.67973 5.87329 1.43476 8.02812C1.19016 10.1833 1.79866 12.3042 3.14917 14.0014Z" fill="#2B3641"/>
<path d="M21.0497 23.4574C20.6014 23.8143 20.0548 24.0015 19.4794 24.0015C19.3447 24.0015 19.2088 23.9911 19.072 23.9705C18.3615 23.8631 17.7162 23.4846 17.2547 22.9046L13.3702 18.0224C13.2281 17.8439 13.2578 17.5841 13.4363 17.4419C13.6148 17.3002 13.8746 17.3296 14.0167 17.508L17.9013 22.3903C18.2322 22.8063 18.692 23.0778 19.1956 23.1538C19.6884 23.2273 20.1635 23.1063 20.5349 22.8109C21.3107 22.1929 21.3926 20.9994 20.7163 20.15L16.8313 15.2678C16.6892 15.0893 16.7189 14.8295 16.8974 14.6873C17.0759 14.5456 17.3353 14.575 17.4779 14.7534L21.3632 19.6357C22.3225 20.8416 22.182 22.556 21.0497 23.4574Z" fill="#2B3641"/>
</svg>
