<svg width="31" height="30" viewBox="0 0 31 30" fill="none" xmlns="http://www.w3.org/2000/svg">
<g clip-path="url(#clip0)">
<path opacity="0.1" d="M15.5 0C7.21484 0 0.5 6.71484 0.5 15C0.5 23.2852 7.21484 30 15.5 30C23.7852 30 30.5 23.2852 30.5 15C30.5 6.71484 23.7852 0 15.5 0ZM15.5 27.6562C8.50977 27.6562 2.84375 21.9902 2.84375 15C2.84375 8.00977 8.50977 2.34375 15.5 2.34375C22.4902 2.34375 28.1562 8.00977 28.1562 15C28.1562 21.9902 22.4902 27.6562 15.5 27.6562Z" fill="white"/>
<path d="M23 10.0137C22.748 10.166 21.9922 10.4648 21.2832 10.541C21.7344 10.2773 22.4082 9.41602 22.5723 8.73047C22.1387 9.0293 21.1367 9.46875 20.6387 9.46875C20.0762 8.83594 19.2793 8.4375 18.4004 8.4375C16.6895 8.4375 15.3066 9.93164 15.3066 11.7715C15.3066 12.0293 15.3359 12.2754 15.3887 12.5156C13.0684 12.4512 10.3613 11.2031 8.83203 9.05859C7.89453 10.8105 8.70312 12.75 9.76953 13.459C9.40625 13.4883 8.73242 13.4121 8.41602 13.084C8.39258 14.2441 8.91406 15.7793 10.8008 16.3418C10.4375 16.5527 9.79297 16.4941 9.51172 16.4473C9.61133 17.4316 10.8828 18.709 12.2773 18.709C11.7793 19.3242 10.0859 20.4492 7.99414 20.0918C9.41797 21.0234 11.0762 21.5684 12.834 21.5684C17.8262 21.5684 21.7051 17.209 21.4941 11.8359C21.4941 11.8301 21.4941 11.8242 21.4941 11.8184C21.4941 11.8066 21.4941 11.7891 21.4941 11.7773C21.4941 11.7598 21.4941 11.7422 21.4941 11.7246C21.9512 11.3848 22.5605 10.793 23 10.0137Z" fill="white"/>
</g>
<defs>
<clipPath id="clip0">
<rect width="30" height="30" fill="white" transform="translate(0.5)"/>
</clipPath>
</defs>
</svg>
