<svg width="31" height="30" viewBox="0 0 31 30" fill="none" xmlns="http://www.w3.org/2000/svg">
<g clip-path="url(#clip0)">
<g opacity="0.1">
<path d="M15.5 0C7.21484 0 0.5 6.71484 0.5 15C0.5 23.2852 7.21484 30 15.5 30C23.7852 30 30.5 23.2852 30.5 15C30.5 6.71484 23.7852 0 15.5 0ZM15.5 27.6562C8.50977 27.6562 2.84375 21.9902 2.84375 15C2.84375 8.00977 8.50977 2.34375 15.5 2.34375C22.4902 2.34375 28.1562 8.00977 28.1562 15C28.1562 21.9902 22.4902 27.6562 15.5 27.6562Z" fill="white"/>
</g>
<g clip-path="url(#clip1)">
<path d="M22.9207 18.6983C22.9015 18.6614 22.8851 18.6298 22.8687 18.6034C22.6089 18.1526 22.111 17.5962 21.378 16.9397L21.3616 16.9239L21.3534 16.916L21.3452 16.9081H21.337C21.0033 16.6022 20.7927 16.3966 20.7051 16.2911C20.5438 16.0907 20.5082 15.8877 20.5957 15.6821C20.6586 15.5265 20.8939 15.1969 21.2987 14.696C21.512 14.4297 21.6816 14.2161 21.8074 14.0553C22.7073 12.9004 23.0985 12.1622 22.9781 11.8431L22.9316 11.7693C22.9015 11.7245 22.8195 11.6823 22.6909 11.6454C22.5596 11.6085 22.3928 11.6006 22.1904 11.6269L19.942 11.6428C19.9065 11.6296 19.8545 11.6322 19.7861 11.6454C19.7177 11.6612 19.6849 11.6691 19.6849 11.6691L19.6466 11.6876L19.6165 11.7113C19.5892 11.7271 19.5618 11.7535 19.5317 11.7904C19.5016 11.8273 19.4743 11.8721 19.4551 11.9222C19.209 12.5287 18.9327 13.0929 18.6182 13.6149C18.4267 13.9261 18.2489 14.195 18.0875 14.4244C17.9261 14.6538 17.7921 14.8199 17.6827 14.928C17.5733 15.0361 17.4748 15.1231 17.3846 15.1864C17.297 15.2523 17.2287 15.2787 17.1822 15.2681C17.1357 15.2576 17.0919 15.247 17.0481 15.2391C16.9743 15.1943 16.9168 15.1336 16.8731 15.0545C16.8293 14.9754 16.7992 14.8779 16.7828 14.7619C16.7664 14.6432 16.7582 14.543 16.7555 14.456C16.7527 14.3717 16.7555 14.2504 16.7582 14.0948C16.7637 13.9393 16.7664 13.8338 16.7664 13.7784C16.7664 13.5886 16.7691 13.3803 16.7774 13.1562C16.7856 12.9321 16.791 12.7554 16.7965 12.6262C16.802 12.497 16.8047 12.3573 16.8047 12.2123C16.8047 12.0673 16.7965 11.9539 16.7774 11.8695C16.7582 11.7878 16.7309 11.706 16.6953 11.6296C16.6597 11.5531 16.605 11.4925 16.5339 11.4476C16.4628 11.4055 16.3753 11.3712 16.2713 11.3448C15.9951 11.2842 15.645 11.2525 15.2183 11.2473C14.25 11.2367 13.6291 11.2974 13.3528 11.4292C13.2434 11.4846 13.145 11.5584 13.0574 11.6559C12.9644 11.7667 12.9508 11.8273 13.0191 11.8379C13.331 11.8827 13.5525 11.9908 13.6838 12.1622L13.7303 12.2518C13.7659 12.3177 13.8042 12.4337 13.8397 12.5972C13.8753 12.7633 13.8999 12.9452 13.9108 13.1456C13.9354 13.5121 13.9354 13.8259 13.9108 14.0869C13.8835 14.3479 13.8589 14.5509 13.837 14.696C13.8124 14.841 13.7795 14.9596 13.7303 15.0493C13.6838 15.1389 13.651 15.1943 13.6373 15.2154C13.6209 15.2365 13.61 15.247 13.599 15.2523C13.5306 15.276 13.4623 15.2892 13.3884 15.2892C13.3146 15.2892 13.227 15.2549 13.1231 15.1837C13.0191 15.1125 12.9097 15.0176 12.8003 14.8937C12.6882 14.7698 12.5624 14.5984 12.4201 14.3769C12.2806 14.1555 12.1329 13.8944 11.9825 13.5939L11.8567 13.375C11.7774 13.2353 11.6707 13.0296 11.5367 12.7607C11.3999 12.4917 11.2823 12.2334 11.1783 11.9802C11.1373 11.8748 11.0744 11.7957 10.9896 11.7403L10.9513 11.7166C10.9267 11.6955 10.8829 11.6744 10.8255 11.6533C10.7681 11.6296 10.7079 11.6138 10.645 11.6032L8.50602 11.619C8.2872 11.619 8.1395 11.6665 8.06018 11.7614L8.03009 11.8062C8.00821 11.8405 8 11.8801 8 11.9354C8 11.9908 8.01641 12.0593 8.0465 12.1384C8.35832 12.8477 8.70022 13.5279 9.06674 14.1871C9.43326 14.8462 9.75328 15.3736 10.0241 15.7743C10.2949 16.1751 10.5711 16.5548 10.8528 16.9107C11.1346 17.2667 11.3206 17.496 11.4108 17.5962C11.5011 17.6964 11.5749 17.7729 11.6269 17.823L11.8211 18.0049C11.9469 18.1262 12.1302 18.2686 12.3709 18.4373C12.6143 18.6061 12.8824 18.7722 13.1751 18.9356C13.4705 19.0991 13.8124 19.2309 14.2008 19.3338C14.5919 19.4366 14.9721 19.4788 15.3414 19.4577H16.2385C16.4218 19.4419 16.5585 19.3865 16.6515 19.2916L16.6816 19.2547C16.7035 19.2257 16.7226 19.1782 16.7391 19.1149C16.7582 19.0517 16.7664 18.9831 16.7664 18.9066C16.7609 18.6904 16.7774 18.4953 16.8184 18.3239C16.8567 18.1499 16.9004 18.0207 16.9524 17.9337C17.0016 17.8467 17.0591 17.7729 17.1193 17.7123C17.1822 17.6516 17.2259 17.6147 17.2533 17.6042C17.2779 17.591 17.2998 17.5831 17.3162 17.5778C17.442 17.5382 17.587 17.5778 17.7566 17.6938C17.9261 17.8124 18.0848 17.9575 18.2325 18.1315C18.3802 18.3055 18.558 18.498 18.7686 18.7142C18.9765 18.9304 19.1597 19.0912 19.3156 19.1967L19.4716 19.2863C19.5755 19.347 19.7123 19.4023 19.8791 19.4524C20.046 19.5025 20.1909 19.5157 20.3167 19.4893L22.3162 19.4603C22.5131 19.4603 22.669 19.4287 22.7757 19.3654C22.8851 19.3021 22.9508 19.2336 22.9699 19.1571C22.9918 19.0807 22.9918 18.9963 22.9726 18.9014C22.9562 18.8038 22.9371 18.7379 22.9207 18.6983Z" fill="white"/>
</g>
</g>
<defs>
<clipPath id="clip0">
<rect width="30" height="30" fill="white" transform="translate(0.5)"/>
</clipPath>
<clipPath id="clip1">
<rect width="15" height="8.25" fill="white" transform="matrix(-1 0 0 1 23 11.25)"/>
</clipPath>
</defs>
</svg>
